<?xml version="1.0" encoding="UTF-8" standalone="no"?><!DOCTYPE svg PUBLIC "-//W3C//DTD SVG 1.1//EN" "http://www.w3.org/Graphics/SVG/1.1/DTD/svg11.dtd"><svg width="100%" height="100%" viewBox="0 0 2059 699" version="1.1" xmlns="http://www.w3.org/2000/svg" xmlns:xlink="http://www.w3.org/1999/xlink" xml:space="preserve" xmlns:serif="http://www.serif.com/" style="fill-rule:evenodd;clip-rule:evenodd;stroke-linejoin:round;stroke-miterlimit:2;"><g><path d="M122.694,527.828l0,-325.803l-68.775,0l-0,392.569l207.326,0l0,-66.766l-138.551,0Z" style="fill:#282423;fill-rule:nonzero;"/><path d="M936.934,389.778l-0,66.765l111.25,-0c-6.682,22.757 -19.192,40.838 -37.979,54.985c-22.755,17.149 -50.277,25.841 -81.804,25.841c-43.485,-0 -78.612,-13.839 -107.39,-42.308c-28.737,-28.425 -42.709,-60.726 -42.709,-98.758c0,-23.944 6.464,-46.556 19.209,-67.2c12.828,-20.765 30.837,-37.509 53.523,-49.773c22.804,-12.321 45.962,-18.569 68.832,-18.569c23.214,-0 46.164,4.956 68.203,14.734c22.296,9.893 43.366,24.355 62.63,42.985l8.673,8.379l51.519,-49.179l-9.82,-9.071c-27.375,-25.286 -55.849,-44.388 -84.63,-56.779c-29.072,-12.502 -60.89,-18.84 -94.568,-18.84c-62.441,-0 -114.257,20.426 -154.011,60.713c-39.707,40.237 -59.84,88.553 -59.84,143.605c-0,55.009 20.106,103.635 59.761,144.527c39.756,41.003 93.458,61.794 159.612,61.794c58.043,0 105.682,-17.937 141.594,-53.308c35.895,-35.366 54.637,-85.086 55.697,-147.783l0.216,-12.76l-187.968,-0Z" style="fill:#282423;fill-rule:nonzero;"/><path d="M1154.81,594.594l0,-392.569l68.271,0l-0,392.569l-68.271,0Z" style="fill:#282423;"/><path d="M1595.26,472.025l-7.708,8.967c-32.616,37.935 -69.732,56.377 -113.474,56.377c-44.216,-0 -79.052,-12.889 -106.497,-39.4c-27.316,-26.391 -40.595,-58.413 -40.595,-97.901c-0,-39.504 13.618,-71.948 41.636,-99.184c28.11,-27.338 60.632,-40.626 99.425,-40.626c47.695,0 86.732,19.198 119.343,58.694l7.737,9.372l52.333,-40.443l-7.07,-9.845c-19.888,-27.693 -45.038,-49.042 -74.746,-63.458c-29.542,-14.325 -63.305,-21.588 -100.353,-21.588c-37.282,-0 -72.506,8.967 -104.69,26.652c-32.331,17.769 -58.01,42.643 -76.321,73.933c-18.301,31.257 -27.576,65.822 -27.576,102.728c-0,59.436 19.998,109.392 59.437,148.469c39.406,39.058 90.518,58.857 151.906,58.857c72.697,0 130.761,-27.305 172.564,-81.153l7.77,-10.006l-53.121,-40.445Z" style="fill:#282423;fill-rule:nonzero;"/><path d="M1876.86,402.827l-73.071,0l36.7,-80.938l36.371,80.938Zm-21.665,-215.359l-29.262,-0l-185.109,407.126l75.241,0l56.232,-122.992l135.511,0l56.731,122.992l73.084,0l-182.428,-407.126Z" style="fill:#282423;fill-rule:nonzero;"/><path d="M18.731,686.52l-8.01,-0l0,-44.534l9.216,0c4.336,0 8.112,0.392 11.322,1.177c3.214,0.784 5.881,2.049 8.014,3.794c2.127,1.75 3.712,4.039 4.757,6.883c1.042,2.844 1.567,6.319 1.567,10.437c-0,14.83 -8.957,22.243 -26.866,22.243m29.063,-44.2c-6.044,-4.663 -15.208,-6.992 -27.494,-6.992l-20.3,0l0,58.031l16.865,-0c5.019,-0 9.497,-0.349 13.431,-1.044c3.934,-0.698 7.39,-1.683 10.359,-2.952c2.973,-1.274 5.484,-2.805 7.53,-4.598c2.047,-1.795 3.714,-3.785 4.998,-5.971c1.286,-2.187 2.221,-4.559 2.801,-7.105c0.584,-2.544 0.874,-5.21 0.874,-7.994c-0,-9.591 -3.021,-16.719 -9.064,-21.375" style="fill:#282423;fill-rule:nonzero;"/><path d="M113.477,673.376c-0.765,2.751 -1.939,5.162 -3.522,7.222c-1.589,2.048 -3.605,3.681 -6.057,4.883c-2.448,1.196 -5.358,1.794 -8.731,1.794c-3.453,-0 -6.405,-0.56 -8.854,-1.687c-2.45,-1.128 -4.449,-2.701 -5.993,-4.725c-1.546,-2.031 -2.682,-4.462 -3.405,-7.286c-0.721,-2.824 -1.084,-5.956 -1.084,-9.392c0,-3.109 0.381,-6.045 1.146,-8.816c0.761,-2.765 1.926,-5.176 3.49,-7.235c1.569,-2.06 3.564,-3.687 5.996,-4.883c2.429,-1.196 5.328,-1.799 8.704,-1.799c3.494,0 6.476,0.563 8.944,1.686c2.468,1.123 4.486,2.712 6.055,4.751c1.563,2.043 2.699,4.48 3.402,7.304c0.7,2.824 1.054,5.941 1.054,9.344c-0,3.142 -0.384,6.089 -1.145,8.839m4.878,-30.967c-2.489,-2.53 -5.61,-4.482 -9.365,-5.845c-3.756,-1.358 -8.161,-2.04 -13.219,-2.04c-4.219,0 -8.215,0.599 -11.99,1.795c-3.774,1.206 -7.076,3.039 -9.908,5.51c-2.831,2.471 -5.069,5.598 -6.714,9.393c-1.647,3.784 -2.473,8.255 -2.473,13.403c0,4.594 0.606,8.716 1.809,12.374c1.204,3.657 3.042,6.756 5.513,9.295c2.469,2.549 5.582,4.5 9.335,5.844c3.752,1.343 8.161,2.019 13.221,2.019c4.219,0 8.222,-0.598 12.015,-1.794c3.797,-1.206 7.109,-3.039 9.941,-5.511c2.828,-2.469 5.079,-5.598 6.745,-9.392c1.665,-3.784 2.5,-8.284 2.5,-13.497c0,-4.558 -0.613,-8.657 -1.838,-12.3c-1.225,-3.637 -3.081,-6.725 -5.572,-9.254" style="fill:#282423;fill-rule:nonzero;"/><path d="M177.081,635.329l-11.141,21.835l-3.311,7.373l-3.437,-7.373l-10.598,-21.835l-12.71,-0l-3.854,58.03l10.119,-0l1.385,-35.568l0.24,-14.52l3.675,8.971l11.085,22.198l7.406,-0l11.623,-23.09l3.678,-8.079l0.659,13.893l1.569,36.195l10.479,-0l-3.795,-58.03l-13.072,-0Z" style="fill:#282423;fill-rule:nonzero;"/><path d="M249.12,673.376c-0.762,2.751 -1.937,5.162 -3.521,7.222c-1.59,2.048 -3.608,3.681 -6.056,4.883c-2.45,1.196 -5.359,1.794 -8.733,1.794c-3.454,-0 -6.407,-0.56 -8.855,-1.687c-2.449,-1.128 -4.446,-2.701 -5.993,-4.725c-1.546,-2.031 -2.679,-4.462 -3.405,-7.286c-0.721,-2.824 -1.08,-5.956 -1.08,-9.392c0,-3.109 0.38,-6.045 1.144,-8.816c0.762,-2.765 1.927,-5.176 3.493,-7.235c1.564,-2.06 3.564,-3.687 5.994,-4.883c2.426,-1.196 5.329,-1.799 8.702,-1.799c3.493,0 6.476,0.563 8.944,1.686c2.47,1.123 4.487,2.712 6.053,4.751c1.568,2.043 2.702,4.48 3.403,7.304c0.704,2.824 1.054,5.941 1.054,9.344c-0,3.142 -0.382,6.089 -1.144,8.839m4.883,-30.967c-2.493,-2.53 -5.613,-4.482 -9.369,-5.845c-3.757,-1.358 -8.163,-2.04 -13.221,-2.04c-4.217,0 -8.213,0.599 -11.987,1.795c-3.776,1.206 -7.08,3.039 -9.907,5.51c-2.835,2.471 -5.07,5.598 -6.717,9.393c-1.647,3.784 -2.471,8.255 -2.471,13.403c-0,4.594 0.603,8.716 1.808,12.374c1.205,3.657 3.041,6.756 5.514,9.295c2.466,2.549 5.579,4.5 9.333,5.844c3.753,1.343 8.16,2.019 13.222,2.019c4.217,0 8.223,-0.598 12.016,-1.794c3.797,-1.206 7.107,-3.039 9.94,-5.511c2.828,-2.469 5.077,-5.598 6.743,-9.392c1.668,-3.784 2.503,-8.284 2.503,-13.497c0,-4.558 -0.616,-8.657 -1.838,-12.3c-1.228,-3.637 -3.082,-6.725 -5.569,-9.254" style="fill:#282423;fill-rule:nonzero;"/><path d="M269.901,642.074l23.308,0l0,51.285l10.845,-0l0,-51.285l23.31,0l0,-6.746l-57.463,0l0,6.746Z" style="fill:#282423;fill-rule:nonzero;"/><path d="M342.9,641.986l18.131,0l0,44.622l-18.131,0l0,6.751l47.104,-0l0,-6.751l-18.129,0l0,-44.622l18.129,0l0,-6.658l-47.104,0l0,6.658Z" style="fill:#282423;fill-rule:nonzero;"/><path d="M441.082,634.613c-5.383,0 -10.24,0.715 -14.576,2.127c-4.339,1.422 -8.033,3.447 -11.083,6.07c-3.054,2.618 -5.401,5.804 -7.05,9.569c-1.643,3.755 -2.468,7.961 -2.468,12.609c0,9.589 2.98,16.835 8.946,21.727c5.961,4.903 14.505,7.354 25.628,7.354c6.906,-0 13.512,-0.961 19.816,-2.883l-0,-7.46c-2.85,1.034 -5.821,1.842 -8.914,2.415c-3.095,0.574 -6.322,0.869 -9.697,0.869c-7.992,0 -14.055,-1.912 -18.191,-5.726c-4.138,-3.824 -6.204,-9.491 -6.204,-17.007c-0,-3.583 0.564,-6.775 1.686,-9.574c1.125,-2.794 2.733,-5.163 4.82,-7.098c2.088,-1.942 4.627,-3.422 7.618,-4.442c2.993,-1.019 6.336,-1.53 10.027,-1.53c3.619,0 6.95,0.304 10.002,0.907c3.051,0.603 6.003,1.486 8.853,2.643l-0,-7.775c-2.89,-0.942 -5.901,-1.648 -9.032,-2.108c-3.134,-0.451 -6.527,-0.687 -10.181,-0.687" style="fill:#282423;fill-rule:nonzero;"/><path d="M488.546,673.646l13.312,-31.042l13.311,31.042l-26.623,-0Zm6.385,-38.318l-26.142,58.03l11.142,0l5.54,-12.653l32.771,0l5.479,12.653l11.684,0l-25.78,-58.03l-14.694,0Z" style="fill:#282423;fill-rule:nonzero;"/><path d="M632.924,687.362c-2.29,0 -4.346,-0.255 -6.172,-0.754c-1.829,-0.5 -3.376,-1.221 -4.641,-2.152c-1.264,-0.932 -2.237,-2.049 -2.919,-3.354c-0.684,-1.299 -1.024,-2.74 -1.024,-4.309c-0,-1.328 0.23,-2.54 0.693,-3.638c0.458,-1.098 1.103,-2.102 1.927,-3.019c0.818,-0.917 1.804,-1.76 2.951,-2.53c1.145,-0.77 2.4,-1.5 3.762,-2.177l19.157,17.674c-3.937,2.838 -8.516,4.259 -13.734,4.259m-7.379,-44.356c0.422,-0.917 1.054,-1.716 1.898,-2.398c0.843,-0.681 1.875,-1.21 3.104,-1.602c1.221,-0.382 2.639,-0.574 4.244,-0.574c2.89,-0 5.18,0.632 6.863,1.887c1.689,1.255 2.53,3.001 2.53,5.217c-0,1.332 -0.328,2.53 -0.99,3.58c-0.664,1.047 -1.566,2.009 -2.711,2.881c-1.144,0.873 -2.481,1.676 -4.005,2.402c-1.53,0.725 -3.152,1.441 -4.88,2.147l-1.626,-1.549c-1.767,-1.657 -3.052,-3.177 -3.855,-4.554c-0.805,-1.374 -1.205,-2.858 -1.205,-4.466c0,-1.059 0.211,-2.054 0.633,-2.971m38.398,30.64c1.045,-3.167 1.564,-6.696 1.564,-10.57l-10.599,0c0.121,4.942 -0.703,9.158 -2.47,12.659l-15.539,-14.301c2.248,-0.947 4.447,-1.926 6.595,-2.937c2.146,-0.999 4.057,-2.147 5.72,-3.431c1.668,-1.295 3.012,-2.77 4.04,-4.442c1.023,-1.676 1.534,-3.618 1.534,-5.844c-0,-1.745 -0.411,-3.397 -1.235,-4.951c-0.825,-1.549 -2.058,-2.921 -3.704,-4.109c-1.646,-1.177 -3.697,-2.107 -6.143,-2.794c-2.453,-0.676 -5.301,-1.019 -8.552,-1.019c-3.375,0 -6.377,0.367 -9.007,1.108c-2.631,0.745 -4.838,1.769 -6.626,3.089c-1.786,1.313 -3.143,2.877 -4.067,4.675c-0.921,1.815 -1.385,3.781 -1.385,5.913c0,2.014 0.552,4.069 1.657,6.172c1.105,2.104 2.782,4.172 5.03,6.211l1.326,1.383c-1.969,0.883 -3.846,1.853 -5.632,2.902c-1.788,1.06 -3.363,2.266 -4.727,3.648c-1.368,1.372 -2.451,2.941 -3.255,4.706c-0.805,1.755 -1.204,3.766 -1.204,6.015c-0,2.398 0.533,4.584 1.599,6.575c1.061,1.98 2.618,3.686 4.664,5.122c2.049,1.437 4.581,2.555 7.588,3.36c3.014,0.793 6.468,1.195 10.362,1.195c4.098,-0 7.9,-0.465 11.416,-1.402c3.513,-0.932 6.694,-2.285 9.545,-4.06l5.299,4.84l13.915,-0l-12.167,-11.193c1.929,-2.51 3.411,-5.354 4.458,-8.52" style="fill:#282423;fill-rule:nonzero;"/><path d="M784.376,662.718c-3.432,2.045 -8.319,3.064 -14.666,3.064l-9.998,0l0,-23.883l10.961,-0c5.946,-0 10.573,0.99 13.887,2.969c3.311,1.981 4.969,4.84 4.969,8.57c-0,4.148 -1.717,7.241 -5.153,9.28m7.41,-23.349c-2.709,-1.422 -5.854,-2.452 -9.426,-3.089c-3.575,-0.638 -7.308,-0.952 -11.203,-0.952l-22.166,0l-0,58.031l10.721,-0l0,-20.826l9.758,0c5.461,0 10.157,-0.564 14.096,-1.711c3.935,-1.137 7.166,-2.628 9.696,-4.462c2.531,-1.833 4.397,-3.911 5.6,-6.235c1.207,-2.324 1.81,-4.672 1.81,-7.04c0,-3.226 -0.805,-5.966 -2.41,-8.217c-1.606,-2.245 -3.765,-4.089 -6.476,-5.499" style="fill:#282423;fill-rule:nonzero;"/><path d="M843.765,660.527c-2.029,0.421 -4.303,0.637 -6.835,0.637l-8.672,0l-0,-19.178l10.12,0c4.778,0 8.482,0.765 11.112,2.304c2.63,1.539 3.944,3.863 3.944,6.971c0,1.604 -0.391,3.011 -1.175,4.246c-0.784,1.226 -1.887,2.266 -3.311,3.108c-1.427,0.842 -3.153,1.481 -5.183,1.912m9.642,8.123c-1.547,-1.407 -3.424,-2.397 -5.635,-2.957c2.729,-0.469 5.153,-1.185 7.257,-2.151c2.109,-0.96 3.878,-2.103 5.302,-3.417c1.424,-1.314 2.501,-2.784 3.222,-4.398c0.725,-1.612 1.085,-3.324 1.085,-5.132c-0,-2.274 -0.493,-4.354 -1.477,-6.237c-0.984,-1.877 -2.528,-3.48 -4.639,-4.813c-2.102,-1.334 -4.809,-2.373 -8.101,-3.108c-3.292,-0.746 -7.226,-1.108 -11.804,-1.108l-21.082,-0l-0,58.029l10.723,-0l-0,-25.84l5.06,-0c1.567,-0 2.979,0.118 4.243,0.353c1.266,0.234 2.43,0.627 3.494,1.176c1.067,0.549 2.058,1.284 2.983,2.221c0.922,0.931 1.826,2.108 2.711,3.525l11.747,18.565l12.105,-0l-12.468,-19.094c-1.606,-2.334 -3.184,-4.207 -4.726,-5.614" style="fill:#282423;fill-rule:nonzero;"/><path d="M927.343,673.376c-0.766,2.751 -1.941,5.162 -3.525,7.222c-1.586,2.048 -3.605,3.681 -6.056,4.883c-2.448,1.196 -5.36,1.794 -8.73,1.794c-3.457,-0 -6.41,-0.56 -8.857,-1.687c-2.45,-1.128 -4.448,-2.701 -5.995,-4.725c-1.544,-2.031 -2.679,-4.462 -3.402,-7.286c-0.721,-2.824 -1.085,-5.956 -1.085,-9.392c0,-3.109 0.384,-6.045 1.145,-8.816c0.763,-2.765 1.928,-5.176 3.494,-7.235c1.566,-2.06 3.564,-3.687 5.993,-4.883c2.426,-1.196 5.331,-1.799 8.707,-1.799c3.492,0 6.471,0.563 8.944,1.686c2.466,1.123 4.483,2.712 6.052,4.751c1.567,2.043 2.699,4.48 3.4,7.304c0.704,2.824 1.057,5.941 1.057,9.344c0,3.142 -0.383,6.089 -1.142,8.839m4.877,-30.967c-2.491,-2.53 -5.613,-4.482 -9.366,-5.845c-3.755,-1.358 -8.163,-2.04 -13.224,-2.04c-4.216,0 -8.211,0.599 -11.984,1.795c-3.776,1.206 -7.077,3.039 -9.911,5.51c-2.828,2.471 -5.068,5.598 -6.716,9.393c-1.645,3.784 -2.468,8.255 -2.468,13.403c-0,4.594 0.603,8.716 1.806,12.374c1.207,3.657 3.042,6.756 5.513,9.295c2.47,2.549 5.582,4.5 9.337,5.844c3.753,1.343 8.16,2.019 13.219,2.019c4.216,0 8.224,-0.598 12.016,-1.794c3.797,-1.206 7.109,-3.039 9.939,-5.511c2.832,-2.469 5.079,-5.598 6.75,-9.392c1.663,-3.784 2.497,-8.284 2.497,-13.497c0,-4.558 -0.613,-8.657 -1.839,-12.3c-1.223,-3.637 -3.081,-6.725 -5.569,-9.254" style="fill:#282423;fill-rule:nonzero;"/><path d="M977.213,667.518l16.082,0l-0,18.472c-0.644,0.177 -1.375,0.343 -2.2,0.485c-0.823,0.152 -1.679,0.28 -2.559,0.378c-0.882,0.103 -1.766,0.186 -2.65,0.245c-0.882,0.06 -1.708,0.088 -2.471,0.088c-4.455,0 -8.281,-0.519 -11.473,-1.554c-3.194,-1.034 -5.812,-2.529 -7.858,-4.485c-2.049,-1.952 -3.555,-4.335 -4.519,-7.148c-0.965,-2.814 -1.446,-5.99 -1.446,-9.55c-0,-3.402 0.591,-6.51 1.777,-9.324c1.184,-2.806 2.89,-5.217 5.121,-7.217c2.228,-1.995 4.967,-3.539 8.221,-4.638c3.251,-1.092 6.964,-1.637 11.144,-1.637c3.652,0 7.025,0.313 10.118,0.952c3.091,0.636 6.101,1.528 9.034,2.686l0,-7.864c-2.933,-1 -5.995,-1.735 -9.185,-2.196c-3.193,-0.461 -6.555,-0.686 -10.09,-0.686c-5.54,0 -10.612,0.686 -15.206,2.069c-4.599,1.372 -8.536,3.372 -11.809,5.991c-3.272,2.617 -5.812,5.813 -7.617,9.589c-1.808,3.774 -2.712,8.045 -2.712,12.814c0,4.794 0.814,9.011 2.438,12.648c1.627,3.648 3.957,6.687 6.99,9.129c3.03,2.44 6.706,4.284 11.022,5.524c4.315,1.25 9.164,1.868 14.546,1.868c1.765,-0 3.591,-0.078 5.481,-0.22c1.887,-0.147 3.782,-0.373 5.692,-0.662c1.907,-0.304 3.774,-0.672 5.602,-1.118c1.827,-0.441 3.563,-0.941 5.209,-1.51l0,-29.659l-26.682,0l-0,6.53Z" style="fill:#282423;fill-rule:nonzero;"/><path d="M1047.23,660.527c-2.03,0.421 -4.309,0.637 -6.839,0.637l-8.67,0l-0,-19.178l10.115,0c4.78,0 8.486,0.765 11.116,2.304c2.626,1.539 3.945,3.863 3.945,6.971c-0,1.604 -0.392,3.011 -1.171,4.246c-0.785,1.226 -1.892,2.266 -3.314,3.108c-1.433,0.842 -3.158,1.481 -5.182,1.912m9.633,8.123c-1.545,-1.407 -3.422,-2.397 -5.629,-2.957c2.732,-0.469 5.149,-1.185 7.257,-2.151c2.108,-0.96 3.872,-2.103 5.305,-3.417c1.421,-1.314 2.499,-2.784 3.219,-4.398c0.722,-1.612 1.085,-3.324 1.085,-5.132c-0,-2.274 -0.491,-4.354 -1.472,-6.237c-0.99,-1.877 -2.529,-3.48 -4.642,-4.813c-2.107,-1.334 -4.809,-2.373 -8.104,-3.108c-3.289,-0.746 -7.225,-1.108 -11.805,-1.108l-21.078,-0l0,58.029l10.722,-0l-0,-25.84l5.061,-0c1.56,-0 2.981,0.118 4.246,0.353c1.266,0.234 2.426,0.627 3.49,1.176c1.065,0.549 2.06,1.284 2.982,2.221c0.921,0.931 1.828,2.108 2.715,3.525l11.742,18.565l12.103,-0l-12.461,-19.094c-1.609,-2.334 -3.186,-4.207 -4.736,-5.614" style="fill:#282423;fill-rule:nonzero;"/><path d="M1098.94,673.646l13.31,-31.042l13.309,31.042l-26.619,-0Zm6.388,-38.318l-26.143,58.03l11.142,0l5.539,-12.653l32.77,0l5.478,12.653l11.688,0l-25.786,-58.03l-14.688,0Z" style="fill:#282423;fill-rule:nonzero;"/><path d="M1194.41,635.329l-11.138,21.835l-3.315,7.373l-3.43,-7.373l-10.599,-21.835l-12.713,-0l-3.857,58.03l10.119,-0l1.386,-35.568l0.241,-14.52l3.676,8.971l11.08,22.198l7.412,-0l11.62,-23.09l3.675,-8.079l0.669,13.893l1.562,36.195l10.482,-0l-3.799,-58.03l-13.071,-0Z" style="fill:#282423;fill-rule:nonzero;"/><path d="M1234.59,673.646l13.309,-31.042l13.311,31.042l-26.62,-0Zm6.382,-38.318l-26.139,58.03l11.139,0l5.544,-12.653l32.763,0l5.485,12.653l11.683,0l-25.776,-58.03l-14.699,0Z" style="fill:#282423;fill-rule:nonzero;"/><path d="M1322.77,634.613c-5.384,0 -10.247,0.715 -14.581,2.127c-4.339,1.422 -8.034,3.447 -11.085,6.07c-3.054,2.618 -5.402,5.804 -7.044,9.569c-1.647,3.755 -2.47,7.961 -2.47,12.609c-0,9.589 2.98,16.835 8.941,21.727c5.961,4.903 14.507,7.354 25.631,7.354c6.902,-0 13.51,-0.961 19.816,-2.883l-0,-7.46c-2.854,1.034 -5.824,1.842 -8.919,2.415c-3.093,0.574 -6.319,0.869 -9.692,0.869c-7.99,0 -14.055,-1.912 -18.198,-5.726c-4.126,-3.824 -6.196,-9.491 -6.196,-17.007c-0,-3.583 0.558,-6.775 1.686,-9.574c1.118,-2.794 2.732,-5.163 4.814,-7.098c2.089,-1.942 4.634,-3.422 7.623,-4.442c2.986,-1.019 6.33,-1.53 10.026,-1.53c3.618,0 6.951,0.304 10,0.907c3.051,0.603 6.002,1.486 8.856,2.643l-0,-7.775c-2.894,-0.942 -5.904,-1.648 -9.032,-2.108c-3.137,-0.451 -6.53,-0.687 -10.176,-0.687" style="fill:#282423;fill-rule:nonzero;"/><path d="M1360.23,641.986l18.133,0l0,44.622l-18.133,0l0,6.751l47.103,-0l0,-6.751l-18.13,0l0,-44.622l18.13,0l0,-6.658l-47.103,0l0,6.658Z" style="fill:#282423;fill-rule:nonzero;"/><path d="M1469.91,673.376c-0.759,2.751 -1.936,5.162 -3.52,7.222c-1.588,2.048 -3.608,3.681 -6.048,4.883c-2.451,1.196 -5.364,1.794 -8.736,1.794c-3.462,-0 -6.409,-0.56 -8.855,-1.687c-2.451,-1.128 -4.451,-2.701 -5.999,-4.725c-1.54,-2.031 -2.679,-4.462 -3.399,-7.286c-0.721,-2.824 -1.083,-5.956 -1.083,-9.392c0,-3.109 0.382,-6.045 1.143,-8.816c0.758,-2.765 1.926,-5.176 3.495,-7.235c1.564,-2.06 3.559,-3.687 5.99,-4.883c2.432,-1.196 5.334,-1.799 8.708,-1.799c3.49,0 6.47,0.563 8.941,1.686c2.471,1.123 4.491,2.712 6.05,4.751c1.568,2.043 2.706,4.48 3.412,7.304c0.696,2.824 1.048,5.941 1.048,9.344c0,3.142 -0.381,6.089 -1.147,8.839m4.884,-30.967c-2.49,-2.53 -5.618,-4.482 -9.369,-5.845c-3.755,-1.358 -8.163,-2.04 -13.222,-2.04c-4.215,0 -8.211,0.599 -11.981,1.795c-3.775,1.206 -7.08,3.039 -9.913,5.51c-2.833,2.471 -5.069,5.598 -6.716,9.393c-1.647,3.784 -2.471,8.255 -2.471,13.403c0,4.594 0.608,8.716 1.809,12.374c1.207,3.657 3.045,6.756 5.516,9.295c2.465,2.549 5.578,4.5 9.334,5.844c3.754,1.343 8.157,2.019 13.217,2.019c4.215,0 8.226,-0.598 12.02,-1.794c3.794,-1.206 7.108,-3.039 9.938,-5.511c2.828,-2.469 5.078,-5.598 6.744,-9.392c1.668,-3.784 2.501,-8.284 2.501,-13.497c-0,-4.558 -0.614,-8.657 -1.839,-12.3c-1.224,-3.637 -3.079,-6.725 -5.568,-9.254" style="fill:#282423;fill-rule:nonzero;"/><path d="M1536.23,635.329l0,47.554l-7.894,-13.276l-21.865,-34.278l-13.794,-0l-0,58.03l10,-0l-0,-47.824l6.628,11.629l22.943,36.195l13.978,-0l-0,-58.03l-9.996,-0Z" style="fill:#282423;fill-rule:nonzero;"/><path d="M639.462,0c-19.864,0 -36.457,13.856 -40.733,32.421l-593.163,-0l-0,18.826l0.002,0l0,530.803l18.825,-0l0,-530.803l574.336,0c4.276,18.562 20.87,32.419 40.733,32.419c23.102,0 41.831,-18.729 41.831,-41.831c0,-23.105 -18.729,-41.835 -41.831,-41.835" style="fill:#344494;fill-rule:nonzero;"/><path d="M475.598,260.258c38.062,0 69.734,13.092 96.825,40.026c27.066,26.914 40.225,59.309 40.225,99.033c-0,39.695 -12.978,71.742 -39.671,97.97c-26.752,26.292 -58.606,39.072 -97.379,39.072c-37.378,0 -68.628,-13.084 -95.541,-39.994c-26.916,-26.919 -40,-58.911 -40,-97.803c0,-38.979 12.724,-71.106 38.897,-98.209c26.055,-26.98 57.668,-40.095 96.644,-40.095m704.72,-154.003c-20.24,-0 -37.122,14.374 -40.997,33.471l-674.42,-0l-0,53.557c-32.812,1.428 -63.971,10.427 -92.704,26.986c-31.435,18.112 -56.557,43.411 -74.671,75.191c-18.081,31.736 -27.247,66.589 -27.247,103.602c-0,37.038 9.176,71.743 27.279,103.156c18.134,31.469 43.54,56.516 75.515,74.453c31.872,17.889 66.79,26.958 103.78,26.958c37.028,0 71.81,-9.172 103.38,-27.261c31.61,-18.12 56.821,-43.328 74.928,-74.929c18.092,-31.572 27.266,-66.354 27.266,-103.376c-0,-37.034 -9.267,-71.833 -27.543,-103.429c-18.309,-31.625 -43.797,-56.753 -75.755,-74.691c-29.158,-16.352 -61.228,-25.244 -95.404,-26.662l0,-34.731l656.128,0c4.653,18.032 20.98,31.371 40.465,31.371c23.101,0 41.833,-18.729 41.833,-41.831c-0,-23.106 -18.732,-41.835 -41.833,-41.835" style="fill:#344494;fill-rule:nonzero;"/><path d="M2016.47,614.709c-19.868,0 -36.459,13.859 -40.734,32.424l-401.404,-0l-0,18.826l401.405,0c4.275,18.562 20.866,32.419 40.733,32.419c23.1,0 41.827,-18.732 41.827,-41.832c0,-23.105 -18.727,-41.837 -41.827,-41.837" style="fill:#344494;fill-rule:nonzero;"/></g></svg>